# xmcd CD database file
#
# Track frame offsets:
#	150
#	5003
#	23850
#	45215
#	62356
#	82492
#	105289
#	125443
#	141745
#	163221
#	184558
#	203454
#
# Disc length: 3026 seconds
#
# Revision: 3
# Processed by: cddbd v1.5PL3 Copyright (c) Steve Scherf et al.
# Submitted via: CDex 1.51
#
DISCID=9b0bd00c
DTITLE=Mikuni Shimokawa - 392 -mikuni shimokawa BEST SELLECTION-
DYEAR=2002
DGENRE=New Age
TTITLE0=Party -is not over- (overture)
TTITLE1=POPCORN
TTITLE2=KANARIA
TTITLE3=Pavement
TTITLE4=TRUE -album version-
TTITLE5=TATTA HITOTSUNO -album mix-
TTITLE6=KARENAI HANA
TTITLE7=tomorrow
TTITLE8=Alone
TTITLE9=BELIEVER -TABIDACHINO UTA- (Studio live version)
TTITLE10=HAJIMARI(Cover version)
TTITLE11=If -moshimo negaiga kanaunara-(CMJK remix)
EXTD=YEAR: 2002
EXTT0=
EXTT1=
EXTT2=
EXTT3=
EXTT4=
EXTT5=
EXTT6=
EXTT7=
EXTT8=
EXTT9=
EXTT10=
EXTT11=
PLAYORDER=
